# xmcd
#
# Track frame offsets: 
#        187
#        12402
#        22977
#        36627
#        47652
#        62352
#        77202
#        89352
#        101577
#        113577
#        131577
#        140877
#        150552
#        161952
#        179202
#        190227
#        203727
#        218575
#        229452
#        243252
#
# Disc length: 3414 seconds
#
# Revision: 5
# Processed by: cddbd v1.5.2PL0 Copyright (c) Steve Scherf et al.
# Submitted via: ExactAudioCopy v1.3
#
DISCID=1c0d5414
DTITLE=Various Artist - Country Memories Disc 1
DYEAR=1993
DGENRE=Country
TTITLE0=Tammy Wynette - Stand By Your Man
TTITLE1=Willie Nelson - Blue Eyes Crying In The Rain
TTITLE2=Loretta Lynn - Coal Miner's Daughter
TTITLE3=Conway Twitty - Hello Darlin'
TTITLE4=Glen Campbell - Rhinestone Cowboy
TTITLE5=George Jones - He Stopped Loving Her Today
TTITLE6=Charlie Rich - The Most Beautiful Girl
TTITLE7=Merle Haggard - If We Make It Through December
TTITLE8=Conway Twitty And Loretta Lynn - After The Fire Is Gone
TTITLE9=Bobby Goldsboro - Honey
TTITLE10=Charley Pride - Kiss An Angel Good Mornin'
TTITLE11=Tom T. Hall - I Love
TTITLE12=Loretta Lynn And Conway Twitty - Louisiana Woman Mississippi 
TTITLE12=Man
TTITLE13=Ray Price - For The Good Times
TTITLE14=Buck Owens - Together Again
TTITLE15=Patsy Cline - She's Got You
TTITLE16=Jeanne Pruett - Satin Sheets
TTITLE17=Johnny Cash - Daddy Sang Bass
TTITLE18=Sonny James - It's The Little Things
TTITLE19=Mel Tellis - Good Woman Blues
EXTD=
EXTT0=
EXTT1=
EXTT2=
EXTT3=
EXTT4=
EXTT5=
EXTT6=
EXTT7=
EXTT8=
EXTT9=
EXTT10=
EXTT11=
EXTT12=
EXTT13=
EXTT14=
EXTT15=
EXTT16=
EXTT17=
EXTT18=
EXTT19=
PLAYORDER=
